# xmcd CD database file
#
# Track frame offsets:
#	150
#	12995
#	25170
#	43820
#	60020
#	82395
#	95415
#	115927
#	138270
#	154562
#	160477
#	191672
#
# Disc length: 2932 seconds
#
# Revision: 0
# Processed by: cddbd v1.5PL3 Copyright (c) Steve Scherf et al.
# Submitted via: CDex 1.51
#
DISCID=960b720c
DTITLE=FROM AUTUMN TO ASHES - THE FICTION WH LIVE
DYEAR=2003
DGENRE=Rock
TTITLE0=The After Dinner Payback
TTITLE1=Lilacs and Lolita
TTITLE2=No Trivia
TTITLE3=Milligram Smile
TTITLE4=The Second Wrong Makes You Feel Right
TTITLE5=Every Reason to
TTITLE6=Autumns Monologue
TTITLE7=Alive Out of Habit
TTITLE8=All I Taste is What's Her Name
TTITLE9=The Ficition We Live
TTITLE10=I'm the Best at Ruining My Life
TTITLE11=Milligram Smile(Video)
EXTD=YEAR: 2003
EXTT0=
EXTT1=
EXTT2=
EXTT3=
EXTT4=
EXTT5=
EXTT6=
EXTT7=
EXTT8=
EXTT9=
EXTT10=
EXTT11=
PLAYORDER=
